<svg width="98" height="40" viewBox="0 0 98 40" fill="none" xmlns="http://www.w3.org/2000/svg">
<g clip-path="url(#clip0_737_2075)">
<mask id="mask0_737_2075" style="mask-type:luminance" maskUnits="userSpaceOnUse" x="1" y="0" width="97" height="40">
<path d="M97.4351 0.5H1.43506V39.5H97.4351V0.5Z" fill="white"/>
</mask>
<g mask="url(#mask0_737_2075)">
<path d="M90.2548 27.8167C89.998 27.8167 89.8211 27.6407 89.8211 27.3876V14.8143H85.5002C85.2433 14.8143 85.0661 14.6391 85.0661 14.3857V12.6513C85.0661 12.3973 85.2434 12.2216 85.5002 12.2216H97.0016C97.2583 12.2216 97.435 12.3975 97.435 12.6513V14.3856C97.435 14.6388 97.2583 14.8143 97.0016 14.8143H92.681V27.3874C92.681 27.6407 92.5033 27.8167 92.2473 27.8167H90.2548ZM57.1563 21.5394L54.8881 15.1071L52.5996 21.5394H57.1563ZM62.1869 27.3087C62.286 27.5627 62.1278 27.8167 61.8516 27.8167H59.8004C59.5043 27.8167 59.3265 27.6807 59.2276 27.4065L58.0642 24.0937H51.6928L50.5274 27.4065C50.4295 27.6808 50.2513 27.8167 49.956 27.8167H48.0233C47.7665 27.8167 47.5886 27.5626 47.6874 27.3087L53.0334 12.6123C53.1323 12.3385 53.3098 12.2223 53.6051 12.2223H56.2486C56.5448 12.2223 56.7421 12.3386 56.8407 12.6123L62.1869 27.3087ZM77.5105 25.711C78.7725 25.711 79.6212 25.1077 80.3118 24.0741L77.1166 20.6819C75.8929 21.3647 75.1034 22.046 75.1034 23.4109C75.1036 24.7562 76.2078 25.711 77.5105 25.711ZM78.3981 14.2879C77.3726 14.2879 76.7808 14.9318 76.7808 15.7893C76.7808 16.452 77.1352 17.0369 77.9443 17.8948C79.3448 17.095 79.937 16.608 79.937 15.7505C79.937 14.9506 79.4243 14.2879 78.3981 14.2879ZM87.138 27.2708C87.3942 27.544 87.2367 27.8167 86.9202 27.8167H84.4148C84.0796 27.8167 83.9021 27.7383 83.6852 27.4847L82.1859 25.8479C81.18 27.1736 79.7782 28.1675 77.4509 28.1675C74.5709 28.1675 72.3016 26.4522 72.3016 23.5092C72.3016 21.2473 73.5254 20.0384 75.38 19.025C74.4718 17.992 74.0583 16.9003 74.0583 15.9456C74.0583 13.5277 75.7745 11.8711 78.3583 11.8711C81.0018 11.8711 82.6197 13.4116 82.6197 15.6919C82.6197 17.6412 81.1997 18.7319 79.6999 19.5512L81.9097 21.9106L83.1523 19.7656C83.31 19.5126 83.4876 19.4147 83.8028 19.4147H85.716C86.0321 19.4147 86.2097 19.6297 86.013 19.9609L83.8031 23.7031L87.138 27.2708ZM67.4507 27.8167C67.7071 27.8167 67.8855 27.6407 67.8855 27.3876V14.8143H72.2052C72.4616 14.8143 72.639 14.6391 72.639 14.3857V12.6513C72.639 12.3973 72.4616 12.2216 72.2052 12.2216H60.7038C60.4469 12.2216 60.2698 12.3975 60.2698 12.6513V14.3856C60.2698 14.6388 60.447 14.8143 60.7038 14.8143H65.0234V27.3874C65.0234 27.6407 65.2015 27.8167 65.4577 27.8167H67.4507Z" fill="#6A6F73"/>
<path d="M9.06763 35.3996C12.4132 37.9597 16.6125 39.4978 21.1685 39.4978C26.1543 39.4978 30.6996 37.668 34.1685 34.6644C34.2105 34.6277 34.1898 34.6034 34.1483 34.6277C32.5917 35.6553 28.1552 37.8986 21.1687 37.8986C15.0972 37.8986 11.2602 36.5594 9.09335 35.3639C9.05189 35.3437 9.03653 35.3744 9.06763 35.3996ZM22.508 36.3964C27.3642 36.3964 32.7004 35.0878 35.892 32.4975C36.7654 31.7917 37.5973 30.8524 38.3423 29.59C38.7712 28.8637 39.1907 28.0007 39.5324 27.1525C39.5476 27.1111 39.5217 27.091 39.4903 27.1375C36.5223 31.4549 27.9279 34.1479 19.0537 34.1479C12.7811 34.1479 6.03186 32.1651 3.38949 28.379C3.36348 28.344 3.33747 28.359 3.3533 28.3992C5.81486 33.5711 13.2827 36.3964 22.508 36.3964ZM17.2023 27.8165C7.10245 27.8165 2.3402 23.1666 1.47633 19.9935C1.46567 19.9475 1.43506 19.9576 1.43506 19.9989C1.43506 21.0671 1.54322 22.4457 1.72932 23.3607C1.81809 23.8062 2.18481 24.5052 2.72246 25.0624C5.16809 27.5823 11.2654 31.1132 21.8249 31.1132C36.2118 31.1132 39.5013 26.3759 40.173 24.818C40.6534 23.7038 40.9022 21.6903 40.9022 19.999C40.9022 19.5897 40.8919 19.2627 40.8762 18.9418C40.8762 18.8897 40.8457 18.8854 40.8352 18.9362C40.1162 22.7483 27.8243 27.8165 17.2023 27.8165ZM3.33747 11.6338C2.75874 12.7691 2.11725 14.6845 1.92654 15.6758C1.84295 16.1006 1.87856 16.3045 2.02924 16.6215C3.23977 19.1604 9.36285 23.2226 23.6456 23.2226C32.3592 23.2226 39.1281 21.1065 40.2247 17.2449C40.4266 16.534 40.4374 15.7835 40.178 14.7722C39.8882 13.6421 39.3453 12.3242 38.8859 11.3988C38.8707 11.3686 38.844 11.3731 38.8494 11.4088C39.0201 16.4736 24.7317 19.7379 17.5224 19.7379C9.71335 19.7379 3.1985 16.6623 3.1985 12.7788C3.1985 12.4057 3.27662 12.0325 3.37413 11.6441C3.38392 11.6086 3.35321 11.6027 3.33747 11.6338ZM34.2004 5.41523C34.2834 5.54368 34.3247 5.68077 34.3247 5.8653C34.3247 8.0318 27.617 11.8644 16.9391 11.8644C9.09335 11.8644 7.62446 8.98735 7.62446 7.15765C7.62446 6.5036 7.87822 5.83437 8.43708 5.15471C8.4676 5.11429 8.44168 5.09873 8.40646 5.12881C7.38721 5.98266 6.45069 6.94342 5.62915 7.98057C5.23661 8.47105 4.99293 8.90557 4.99293 9.1659C4.99293 12.9576 14.6112 15.7068 23.6045 15.7068C33.1869 15.7068 37.4636 12.6146 37.4636 9.89708C37.4636 8.92587 37.0811 8.35892 36.1027 7.25973C35.4677 6.54468 34.867 5.96245 34.2311 5.38933C34.2004 5.36428 34.179 5.38468 34.2004 5.41523ZM31.2627 3.2492C28.3054 1.49692 24.8711 0.5 21.1687 0.5C17.4405 0.5 13.9028 1.53173 10.9347 3.33041C10.0445 3.87204 9.54338 4.30608 9.54338 4.86402C9.54338 6.50872 13.4318 8.27714 20.3304 8.27714C27.1573 8.27714 32.4524 6.34013 32.4524 4.47561C32.4524 4.03057 32.059 3.7192 31.2627 3.2492Z" fill="#6A6F73"/>
</g>
</g>
<defs>
<clipPath id="clip0_737_2075">
<rect width="97" height="40" fill="white" transform="translate(0.935059)"/>
</clipPath>
</defs>
</svg>
