<svg width="88" height="40" viewBox="0 0 88 40" fill="none" xmlns="http://www.w3.org/2000/svg">
<g clip-path="url(#clip0_737_2058)">
<path d="M79.5383 31.8875C79.5383 36.2145 76.1411 39.5037 71.6893 39.5009C67.2375 39.4981 63.86 36.2005 63.8628 31.8623C63.8656 27.5242 67.2685 24.2377 71.7118 24.2461C76.1551 24.2545 79.5439 27.5632 79.5383 31.8875ZM75.5674 31.8875C75.5591 31.131 75.3256 30.3938 74.8964 29.7686C74.4671 29.1433 73.8612 28.6578 73.1548 28.373C72.4483 28.0882 71.6727 28.0168 70.9255 28.1678C70.1783 28.3188 69.4927 28.6855 68.9548 29.2218C68.417 29.758 68.0508 30.44 67.9024 31.182C67.7539 31.9241 67.8298 32.6931 68.1204 33.3925C68.4111 34.0919 68.9035 34.6905 69.536 35.1131C70.1684 35.5358 70.9127 35.7637 71.6752 35.7681C72.1901 35.778 72.7016 35.6845 73.1791 35.4933C73.6565 35.3021 74.0901 35.017 74.4537 34.6553C74.8172 34.2936 75.1033 33.8627 75.2947 33.3884C75.4861 32.9142 75.5789 32.4065 75.5674 31.8958V31.8875Z" fill="#6A6F73"/>
<path d="M34.7611 37.418C34.7611 36.9716 34.778 36.5252 34.7611 36.0872C34.7443 35.7803 34.8118 35.7134 35.1239 35.8082C36.3467 36.156 37.6193 36.2993 38.8895 36.2323C39.3754 36.2192 39.8536 36.1092 40.2956 35.9087C41.1955 35.4679 41.2743 34.5138 40.4672 33.9335C40.0155 33.6439 39.5185 33.4308 38.9964 33.303C38.0578 33.0452 37.1665 32.6412 36.3557 32.1061C33.9428 30.4127 34.2831 26.5265 36.7775 25.0953C37.8595 24.5033 39.0833 24.214 40.3181 24.2583C41.4272 24.2804 42.5313 24.4122 43.6141 24.6517C43.8391 24.6991 43.9178 24.7828 43.9122 25.0228C43.8953 25.8764 43.8981 26.7329 43.9122 27.5894C43.9122 27.8126 43.8672 27.8684 43.6309 27.807C42.6247 27.529 41.5814 27.4057 40.5375 27.4415C40.0649 27.4523 39.6019 27.5757 39.1876 27.8014C39.0394 27.8722 38.9123 27.9799 38.8187 28.114C38.725 28.2481 38.668 28.404 38.6533 28.5665C38.6386 28.729 38.6666 28.8925 38.7346 29.041C38.8026 29.1896 38.9083 29.3181 39.0414 29.4139C39.3884 29.6763 39.7854 29.8661 40.2084 29.9719C40.9625 30.1781 41.6995 30.4412 42.4132 30.7586C43.9881 31.5593 44.9443 32.7813 44.9443 34.5751C44.9443 36.4471 44.1231 37.8588 42.4132 38.7236C41.4054 39.213 40.3011 39.4759 39.1792 39.4936C37.7896 39.519 36.401 39.4068 35.0339 39.1588C34.8089 39.1253 34.7527 39.0416 34.7527 38.824C34.7724 38.3526 34.7611 37.8839 34.7611 37.418Z" fill="#6A6F73"/>
<path d="M59.9089 28.7221C58.8448 28.175 57.656 27.9107 56.4583 27.9549C55.4141 27.9308 54.403 28.3193 53.6475 29.0348C52.892 29.7502 52.454 30.7341 52.4297 31.77C52.4055 32.8059 52.7971 33.8089 53.5183 34.5583C54.2395 35.3078 55.2313 35.7424 56.2755 35.7664C57.4417 35.8559 58.6111 35.6404 59.6671 35.1415C59.7008 35.1149 59.7396 35.0953 59.7812 35.0838C59.8227 35.0723 59.8661 35.0691 59.9089 35.0745V38.1601C59.9089 38.997 59.9089 38.997 59.0652 39.184C56.9842 39.661 54.9256 39.6582 52.957 38.746C50.201 37.4682 48.7387 35.281 48.5981 32.2735C48.4687 29.6148 49.408 27.3941 51.5875 25.7732C53.123 24.6294 54.8947 24.1998 56.7958 24.25C57.7588 24.2782 58.7142 24.4282 59.6389 24.6964C59.7767 24.7354 59.9061 24.755 59.9061 24.9754C59.9033 26.2001 59.9089 27.4388 59.9089 28.7221Z" fill="#6A6F73"/>
<path d="M20.7927 28.7237C19.7288 28.1734 18.5382 27.9089 17.3393 27.9565C16.2951 27.9343 15.2848 28.3245 14.5306 29.0412C13.7764 29.758 13.3402 30.7427 13.3178 31.7785C13.2954 32.8144 13.6888 33.8167 14.4113 34.5648C15.1338 35.313 16.1264 35.7458 17.1706 35.768C18.4048 35.8584 19.6404 35.6103 20.7421 35.051C20.8293 35.1458 20.7899 35.2491 20.7899 35.33C20.7899 36.4459 20.7899 37.5312 20.7899 38.6303C20.7899 38.8619 20.7421 38.9763 20.489 39.046C18.2392 39.6375 16.0119 39.7295 13.8521 38.7391C11.0399 37.4502 9.61123 35.2184 9.48467 32.1719C9.38062 29.7224 10.2187 27.6384 12.1226 26.0343C13.3248 25.0356 14.8071 24.427 16.3691 24.2906C17.7544 24.1546 19.1532 24.2843 20.489 24.6728C20.7027 24.7314 20.7927 24.8095 20.7899 25.0522C20.7843 26.2826 20.7927 27.4682 20.7927 28.7237Z" fill="#6A6F73"/>
<path d="M25.9536 12.1652V21.7622C25.9536 22.7526 25.3743 23.5114 24.4912 23.6955C24.2224 23.754 23.9438 23.7528 23.6755 23.692C23.4071 23.6312 23.1557 23.5123 22.9391 23.3438C22.7225 23.1753 22.5461 22.9614 22.4226 22.7174C22.299 22.4734 22.2314 22.2053 22.2246 21.9324V2.53747C22.2246 1.79537 22.4692 1.1844 23.1245 0.788246C23.4026 0.606572 23.7269 0.506749 24.0599 0.50033C24.3928 0.493912 24.7208 0.581161 25.0059 0.751979C25.3082 0.913279 25.5586 1.1559 25.7282 1.452C25.8978 1.74809 25.9799 2.08563 25.9648 2.42588C25.9648 5.13759 25.9648 7.84837 25.9648 10.5582C25.9536 11.1022 25.9536 11.6351 25.9536 12.1652Z" fill="#6A6F73"/>
<path d="M63.1089 12.1237V2.45691C63.1089 1.4442 63.6967 0.713267 64.6275 0.548667C65.1089 0.459661 65.6062 0.563539 66.0105 0.837544C66.4148 1.11155 66.6931 1.53335 66.7845 2.01054C66.8018 2.10265 66.8121 2.1959 66.8155 2.28952V21.69C66.8374 22.1019 66.7398 22.5115 66.5342 22.8701C66.3216 23.2071 66.0051 23.467 65.6317 23.6112C65.2583 23.7555 64.8479 23.7764 64.4616 23.6708C64.0686 23.5642 63.7226 23.3309 63.4782 23.0075C63.2338 22.6842 63.1048 22.2894 63.1117 21.8853C63.1117 19.2182 63.1117 16.5539 63.1117 13.8868C63.1089 13.301 63.1089 12.7123 63.1089 12.1237Z" fill="#6A6F73"/>
<path d="M29.7052 31.8629C29.7052 34.2064 29.7052 36.5498 29.7052 38.8933C29.7052 39.1723 29.6237 39.242 29.3509 39.2364C28.3103 39.2225 27.267 39.2364 26.2265 39.2364C26.0099 39.2364 25.9453 39.1862 25.9453 38.9574C25.9453 34.2333 25.9453 29.5111 25.9453 24.7907C25.9453 24.5591 26.0071 24.4922 26.2434 24.4922C27.2754 24.4922 28.3047 24.5089 29.3368 24.4922C29.618 24.4922 29.7108 24.5591 29.7108 24.8577C29.6996 27.2011 29.7052 29.5334 29.7052 31.8629Z" fill="#6A6F73"/>
<path d="M77.0352 13.7699C77.0352 15.2708 77.0352 16.7689 77.0352 18.2671C77.0334 18.7132 76.8689 19.1436 76.5721 19.4788C76.2752 19.8139 75.8662 20.0311 75.4204 20.0903C74.9747 20.1495 74.5224 20.0466 74.1472 19.8007C73.772 19.5548 73.4992 19.1825 73.3792 18.7525C73.3236 18.5716 73.2942 18.3837 73.2921 18.1945C73.2921 15.2392 73.2921 12.2848 73.2921 9.33126C73.2745 8.972 73.3684 8.61605 73.561 8.31129C73.7535 8.00654 74.0356 7.76762 74.3691 7.62667C74.6563 7.49298 74.973 7.43406 75.2895 7.45546C75.606 7.47687 75.9117 7.5779 76.178 7.74902C76.4442 7.92014 76.662 8.15572 76.811 8.43353C76.96 8.71133 77.0352 9.02221 77.0295 9.33684V13.7699H77.0352Z" fill="#6A6F73"/>
<path d="M11.9937 13.7471C11.9937 12.2713 11.9937 10.7927 11.9937 9.31683C11.9895 8.9166 12.1166 8.52587 12.3557 8.20348C12.5949 7.88109 12.9331 7.64449 13.3195 7.5293C13.7059 7.41411 14.1196 7.42658 14.4982 7.56481C14.8769 7.70304 15.2 7.95957 15.419 8.29576C15.621 8.60656 15.7266 8.96936 15.7227 9.33915C15.7227 12.2824 15.7227 15.2257 15.7227 18.1718C15.7197 18.6623 15.5204 19.1316 15.1686 19.4764C14.8169 19.8212 14.3414 20.0132 13.8469 20.0102C13.3524 20.0073 12.8794 19.8096 12.5318 19.4606C12.1842 19.1116 11.9907 18.64 11.9937 18.1494C11.988 16.682 11.9937 15.2145 11.9937 13.7471Z" fill="#6A6F73"/>
<path d="M32.4216 13.7644C32.4216 12.2858 32.4216 10.8072 32.4216 9.33137C32.4161 8.97907 32.5122 8.63255 32.6985 8.33257C32.8848 8.03259 33.1536 7.79164 33.4732 7.63807C33.7929 7.4845 34.1501 7.42469 34.5029 7.46569C34.8556 7.50669 35.1893 7.64679 35.4645 7.8695C35.6845 8.03531 35.8619 8.25039 35.9821 8.49719C36.1023 8.74398 36.162 9.01548 36.1563 9.28952C36.1563 12.2653 36.1563 15.2412 36.1563 18.217C36.1585 18.4588 36.1127 18.6987 36.0215 18.9229C35.9302 19.1471 35.7954 19.3514 35.6246 19.5239C35.4538 19.6964 35.2504 19.8339 35.0261 19.9285C34.8017 20.023 34.5608 20.0728 34.3171 20.075H34.3002C34.0493 20.0755 33.8009 20.026 33.5696 19.9295C33.3383 19.8331 33.1289 19.6915 32.9538 19.5134C32.7786 19.3352 32.6413 19.1239 32.5499 18.8922C32.4585 18.6604 32.4149 18.4128 32.4216 18.164C32.4216 16.6965 32.4216 15.2291 32.4216 13.7644Z" fill="#6A6F73"/>
<path d="M56.6071 13.7822C56.6071 15.2468 56.6071 16.7143 56.6071 18.179C56.6189 18.5251 56.5296 18.8672 56.35 19.1642C56.1704 19.4612 55.9081 19.7003 55.5946 19.8529C55.3037 20.0132 54.9726 20.0879 54.6404 20.0681C54.3081 20.0484 53.9884 19.935 53.7189 19.7413C53.1058 19.3367 52.8752 18.7369 52.8752 18.0199C52.8752 15.5091 52.8752 12.9982 52.8752 10.4874C52.8752 10.0661 52.8583 9.65045 52.8752 9.2236C52.8905 8.736 53.1004 8.2744 53.4588 7.94034C53.8172 7.60628 54.2946 7.42713 54.7861 7.4423C55.2776 7.45746 55.743 7.66571 56.0797 8.02122C56.4164 8.37673 56.597 8.85039 56.5817 9.33798C56.6071 10.8278 56.6071 12.3064 56.6071 13.7822Z" fill="#6A6F73"/>
<path d="M1.76842 16.3007V14.4371C1.76565 14.1942 1.81114 13.9531 1.90228 13.7277C1.99342 13.5022 2.12844 13.2968 2.29961 13.1231C2.47079 12.9494 2.67478 12.8108 2.89993 12.7153C3.12509 12.6198 3.367 12.5693 3.61185 12.5665C3.8567 12.5638 4.0997 12.6089 4.32697 12.6993C4.55425 12.7897 4.76134 12.9237 4.93644 13.0935C5.11153 13.2633 5.2512 13.4657 5.34746 13.689C5.44372 13.9124 5.49469 14.1524 5.49746 14.3953C5.5162 15.66 5.5162 16.9247 5.49746 18.1894C5.50193 18.4348 5.45721 18.6786 5.3659 18.9067C5.27459 19.1348 5.13851 19.3426 4.96556 19.518C4.79261 19.6935 4.58624 19.8331 4.35844 19.9288C4.13064 20.0245 3.88594 20.0743 3.63856 20.0754C3.38907 20.0732 3.1425 20.022 2.91309 19.9246C2.68369 19.8273 2.47602 19.6858 2.3021 19.5084C2.12818 19.3309 1.99146 19.121 1.89986 18.8908C1.80825 18.6605 1.76358 18.4146 1.76842 18.1671C1.76842 17.545 1.76842 16.9228 1.76842 16.3007Z" fill="#6A6F73"/>
<path d="M46.3705 16.3069C46.3705 16.9402 46.3846 17.5735 46.3705 18.204C46.375 18.6466 46.2186 19.076 45.9299 19.4136C45.6412 19.7511 45.2396 19.9742 44.7987 20.042C44.3577 20.1098 43.9069 20.0177 43.5288 19.7826C43.1507 19.5475 42.8707 19.1852 42.7399 18.7619C42.6801 18.559 42.6507 18.3484 42.6527 18.137C42.6527 16.8927 42.6527 15.6485 42.6527 14.4042C42.6447 13.9897 42.7778 13.5846 43.0307 13.2545C43.2836 12.9244 43.6413 12.6887 44.0461 12.5854C44.4508 12.4821 44.8788 12.5174 45.2609 12.6854C45.6429 12.8535 45.9566 13.1445 46.1512 13.5115C46.3034 13.8094 46.3787 14.1401 46.3705 14.474C46.3733 15.0849 46.3705 15.6959 46.3705 16.3069Z" fill="#6A6F73"/>
<path d="M87.2609 16.3128C87.2609 16.9572 87.2778 17.6017 87.2609 18.2461C87.2743 18.7013 87.1169 19.1451 86.8194 19.4917C86.5218 19.8384 86.1051 20.0631 85.6501 20.1225C85.1951 20.1819 84.734 20.0717 84.3562 19.8132C83.9784 19.5547 83.7107 19.1663 83.605 18.7232C83.5519 18.5192 83.5263 18.309 83.529 18.0983C83.529 16.8987 83.529 15.6962 83.529 14.4966C83.529 13.4504 84.1534 12.6972 85.0983 12.5437C85.3636 12.5004 85.6353 12.5154 85.8942 12.5877C86.1531 12.66 86.3928 12.7878 86.5964 12.9621C86.8 13.1364 86.9625 13.3529 87.0725 13.5964C87.1824 13.8399 87.2372 14.1043 87.2328 14.3711C87.2609 15.0239 87.2609 15.6795 87.2609 16.3128Z" fill="#6A6F73"/>
</g>
<defs>
<clipPath id="clip0_737_2058">
<rect width="87" height="40" fill="white" transform="translate(0.935059)"/>
</clipPath>
</defs>
</svg>
