<svg width="63" height="40" viewBox="0 0 63 40" fill="none" xmlns="http://www.w3.org/2000/svg">
<g clip-path="url(#clip0_737_2132)">
<path d="M20.0366 32.2176L19.9245 32.3263C18.1631 34.1209 16.1249 35.069 14.0254 35.069C9.64048 35.069 6.45961 31.7795 6.45961 27.2421C6.45961 22.7118 9.64048 19.417 14.0254 19.417C16.1249 19.417 18.1631 20.3704 19.9245 22.172L20.0366 22.2789L22.8565 18.8685L22.7811 18.7774C20.4362 16.0066 17.6216 14.6589 14.1621 14.6589C10.6938 14.6589 7.51815 15.8278 5.23283 17.9326C2.74421 20.2144 1.43506 23.4321 1.43506 27.2421C1.43506 31.0522 2.74421 34.2769 5.23283 36.5587C7.51815 38.6758 10.6938 39.8359 14.1621 39.8359C17.6216 39.8359 20.4362 38.4865 22.7811 35.714L22.8565 35.6298L20.0366 32.2176Z" fill="#6A6F73"/>
<path d="M25.7046 39.3672H30.6853V15.049H25.7046V39.3672Z" fill="#6A6F73"/>
<path d="M50.1989 34.0851C48.8687 34.8948 47.6331 35.3031 46.522 35.3031C44.9114 35.3031 44.1824 34.4514 44.1824 32.5586V19.6546H49.2595V15.077H44.1824V7.50952L39.3015 10.1243V15.077H35.0884V19.6546H39.3015V33.3806C39.3015 37.1187 41.5168 39.6775 44.8256 39.744C47.0706 39.7879 48.4235 39.1184 49.2437 38.6277L49.2963 38.5944L50.4933 33.9046L50.1989 34.0851Z" fill="#6A6F73"/>
<path d="M54.3218 39.3672H59.3096V15.049H54.3218V39.3672Z" fill="#6A6F73"/>
<path d="M62.2145 10.7899C57.6632 4.34398 50.1062 0.498901 42.4178 0.498901C34.7311 0.498901 27.1724 4.34398 22.6298 10.7899L22.395 11.1211H28.1258L28.1889 11.0527C32.0883 7.02538 37.1812 4.89779 42.4178 4.89779C47.6544 4.89779 52.7438 7.02538 56.652 11.0527L56.715 11.1211H62.4424L62.2145 10.7899Z" fill="#6A6F73"/>
</g>
<defs>
<clipPath id="clip0_737_2132">
<rect width="62" height="40" fill="white" transform="translate(0.935059)"/>
</clipPath>
</defs>
</svg>
