<svg width="56" height="48" viewBox="0 0 56 48" fill="none" xmlns="http://www.w3.org/2000/svg">
<g clip-path="url(#clip0_737_2139)">
<mask id="mask0_737_2139" style="mask-type:luminance" maskUnits="userSpaceOnUse" x="0" y="0" width="56" height="48">
<path d="M55.6725 0H0.935059V48H55.6725V0Z" fill="white"/>
</mask>
<g mask="url(#mask0_737_2139)">
<path d="M36.0098 10.2086L18.6315 15.9917C16.9833 16.5411 16.087 18.3339 16.6363 19.9821C17.1857 21.6303 18.9785 22.5266 20.6267 21.9772L38.005 16.1941C39.6532 15.6447 40.5496 13.8519 40.0002 12.2038C39.4508 10.5556 37.658 9.65915 36.0098 10.2086Z" fill="#6A6F73"/>
<path d="M36.0098 0.173416L18.6315 5.95655C16.9833 6.50595 16.087 8.29872 16.6363 9.94691C17.1857 11.5951 18.9785 12.4915 20.6267 11.9421L38.005 6.15896C39.6532 5.60956 40.5496 3.81679 40.0002 2.1686C39.4508 0.520404 37.658 -0.375982 36.0098 0.173416Z" fill="#6A6F73"/>
<path d="M36.0099 20.2398L18.6027 26.023C16.9545 26.5724 16.0581 28.3651 16.6075 30.0133C17.1569 31.6615 18.9497 32.5579 20.5979 32.0085L37.9762 26.2254C39.6244 25.676 40.5208 23.8832 39.9714 22.235C39.4509 20.5868 37.6581 19.6904 36.0099 20.2398Z" fill="#6A6F73"/>
<path d="M3.0459 44.7328H6.74711V43.0557H3.0459V41.6388H6.89169V40.0195H0.935059V47.8268H6.94952V46.1786H3.0459V44.7328Z" fill="#6A6F73"/>
<path d="M18.2841 40.0195H16.1733V47.8268H18.2841V40.0195Z" fill="#6A6F73"/>
<path d="M21.4941 43.8651C21.5519 41.2627 24.1543 40.9446 25.8893 41.9277L26.0338 40.2506C23.0555 39.1229 19.3254 40.135 19.3254 43.8362C19.2965 47.6241 22.9977 48.6073 26.0628 47.6241L25.9471 45.9181C24.2122 46.8434 21.4652 46.4675 21.4941 43.8651Z" fill="#6A6F73"/>
<path d="M29.0413 42.073C29.0413 41.1477 31.0654 41.1767 32.1353 41.755L32.2798 40.1357C29.7063 39.355 26.8726 39.9622 26.8726 42.2465C26.8726 45.0224 30.516 44.3285 30.516 45.5718C30.516 46.6996 28.5208 46.555 27.1328 45.9188L26.9883 47.6538C29.2148 48.3188 32.6557 48.2899 32.6557 45.3984C32.6557 42.4779 29.0413 43.461 29.0413 42.073Z" fill="#6A6F73"/>
<path d="M35.4602 42.073C35.4602 41.1477 37.4843 41.1767 38.5542 41.755L38.6988 40.1357C36.1253 39.355 33.2915 39.9622 33.2915 42.2465C33.2915 45.0224 36.9349 44.3285 36.9349 45.5718C36.9349 46.6996 34.9397 46.555 33.5518 45.9188L33.3783 47.6538C35.6048 48.3188 39.0747 48.2899 39.0747 45.3984C39.0747 42.4779 35.4602 43.461 35.4602 42.073Z" fill="#6A6F73"/>
<path d="M53.7354 40.0195V45.0509L51.1619 40.0195H48.4727V47.8268H50.439V42.6798L53.1281 47.8268H55.6727V40.0195H53.7354Z" fill="#6A6F73"/>
<path d="M43.5568 39.8164C41.3592 39.8164 39.6821 41.1176 39.6821 43.9224C39.6821 46.6405 41.3592 47.9995 43.5568 47.9995C45.7544 47.9995 47.4315 46.6116 47.4315 43.9224C47.4604 41.1176 45.7833 39.8164 43.5568 39.8164ZM43.5568 46.467C42.3712 46.467 41.8507 45.108 41.8507 43.9224C41.8507 42.7369 42.3712 41.3779 43.5568 41.3779C44.7423 41.3779 45.2628 42.8236 45.2628 43.9224C45.2628 45.108 44.7712 46.467 43.5568 46.467Z" fill="#6A6F73"/>
<path d="M13.3977 43.981C14.2941 43.7207 14.7568 43.1424 14.7568 42.1015C14.7568 40.4822 13.311 40.0195 12.27 40.0195H8.45312V47.8268H10.535V44.8774C10.535 44.8484 11.0556 44.8774 11.3736 44.8774C11.7496 44.8774 12.0098 45.1087 12.1544 45.4846L12.964 47.8268H15.2194C15.2194 47.8268 14.1206 44.7906 14.1206 44.7617C13.8893 44.1834 13.4267 43.981 13.3977 43.981ZM11.6339 43.287H10.4772V41.5521H11.6628C12.2122 41.5521 12.617 41.8991 12.617 42.4195C12.6459 42.9978 12.1544 43.3159 11.6339 43.287Z" fill="#6A6F73"/>
</g>
</g>
<defs>
<clipPath id="clip0_737_2139">
<rect width="55" height="48" fill="white" transform="translate(0.935059)"/>
</clipPath>
</defs>
</svg>
