<svg width="95" height="40" viewBox="0 0 95 40" fill="none" xmlns="http://www.w3.org/2000/svg">
<g clip-path="url(#clip0_737_2100)">
<mask id="mask0_737_2100" style="mask-type:luminance" maskUnits="userSpaceOnUse" x="1" y="0" width="94" height="40">
<path d="M94.6255 0.5H1.62549V39.5H94.6255V0.5Z" fill="white"/>
</mask>
<g mask="url(#mask0_737_2100)">
<path d="M31.5035 7.70499H3.66166V2.52393H31.5035V7.70499ZM33.4928 0.523438H1.67139V9.70043H33.4928V0.523438Z" fill="#6A6F73"/>
<path d="M3.66151 24.873H1.67236V15.6935H3.66151V19.3198H7.2155V15.6935H9.20465V24.873H7.2155V21.0702H3.66151V24.873Z" fill="#6A6F73"/>
<path d="M12.2365 20.8222H14.6058C14.5617 20.1473 14.2843 19.6769 13.5088 19.6769C12.9237 19.6769 12.4118 19.927 12.2365 20.8222ZM13.7427 24.9922C11.7246 24.9922 10.3501 23.7147 10.3501 21.616C10.3501 19.5744 11.6956 18.1652 13.4798 18.1652C15.4248 18.1652 16.3901 19.4718 16.3901 21.4248V22.1592H12.2365C12.4711 23.1715 13.2604 23.4355 14.0504 23.4355C14.7376 23.4355 15.2344 23.2892 15.8485 22.9069H15.9223V24.4193C15.3958 24.8016 14.6493 24.9922 13.7427 24.9922Z" fill="#6A6F73"/>
<path d="M21.5672 21.0246L20.5433 24.8711H18.8032L16.814 18.4138V18.3403H18.7155L19.7974 22.2021L20.8213 18.3403H22.3716L23.41 22.2021L24.5071 18.3403H26.3354V18.4138L24.3463 24.8711H22.6055L21.5672 21.0246Z" fill="#6A6F73"/>
<path d="M29.5361 24.9746C27.9567 24.9746 27.313 24.3434 27.313 22.8608V15.6501H29.2435V22.7278C29.2435 23.183 29.4188 23.3445 29.799 23.3445C29.9308 23.3445 30.1212 23.3008 30.2378 23.2565H30.2674V24.8569C30.1067 24.9151 29.8286 24.9746 29.5361 24.9746Z" fill="#6A6F73"/>
<path d="M32.714 20.8222H35.0833C35.0392 20.1473 34.7617 19.6769 33.9863 19.6769C33.4018 19.6769 32.8892 19.927 32.714 20.8222ZM34.2202 24.9922C32.202 24.9922 30.8276 23.7147 30.8276 21.616C30.8276 19.5744 32.173 18.1652 33.9573 18.1652C35.9023 18.1652 36.8675 19.4718 36.8675 21.4248V22.1592H32.714C32.9479 23.1715 33.7379 23.4355 34.5272 23.4355C35.2151 23.4355 35.7119 23.2892 36.3266 22.9069H36.3997V24.4193C35.8733 24.8016 35.1274 24.9922 34.2202 24.9922Z" fill="#6A6F73"/>
<path d="M44.8191 18.3393H46.2522V19.8954H44.8191V22.553C44.8191 23.1259 45.0385 23.3905 45.6236 23.3905C45.7844 23.3905 45.9893 23.3753 46.2087 23.3019H46.2522V24.8289C46.0038 24.9175 45.6236 25.0194 45.0682 25.0194C43.5027 25.0194 42.8886 24.3003 42.8886 22.641V19.8954H40.4171V22.553C40.4171 23.1259 40.6365 23.3905 41.221 23.3905C41.3824 23.3905 41.5873 23.3753 41.8067 23.3019H41.8502V24.8289C41.6018 24.9175 41.221 25.0194 40.6662 25.0194C39.1007 25.0194 38.4866 24.3003 38.4866 22.641V19.8954H37.4917V18.3393H38.4866V16.5483H40.4171V18.3393H42.8886V16.5483H44.8191V18.3393Z" fill="#6A6F73"/>
<path d="M52.7379 20.1631C53.7479 20.1631 54.2296 19.5908 54.2296 18.7685C54.2296 17.9164 53.7479 17.3441 52.7379 17.3441H51.4801V20.1631H52.7379ZM56.2484 18.7685C56.2484 20.7658 54.9175 21.8515 52.8987 21.8515H51.4801V24.832H49.4922V15.6525H52.8987C54.9175 15.6525 56.2484 16.7389 56.2484 18.7653" fill="#6A6F73"/>
<path d="M60.5052 22.7975V22.2397C60.2127 22.0789 59.8331 22.0201 59.4378 22.0201C58.8092 22.0201 58.429 22.2543 58.429 22.7829C58.429 23.3267 58.8092 23.5616 59.3792 23.5616C59.9201 23.5616 60.3299 23.2824 60.5052 22.7975ZM60.5638 24.2073C60.1395 24.7214 59.5116 24.9708 58.8376 24.9708C57.5659 24.9708 56.5269 24.1934 56.5269 22.812C56.5269 21.5351 57.5659 20.6836 59.057 20.6836C59.5248 20.6836 60.0084 20.7571 60.5052 20.9033V20.7868C60.5052 20.0816 60.1105 19.7739 59.0728 19.7739C58.4139 19.7739 57.7853 19.9638 57.2437 20.2728H57.1712V18.7161C57.6681 18.423 58.5463 18.1729 59.4082 18.1729C61.3683 18.1729 62.4357 19.1124 62.4357 20.7571V24.8531H60.5638V24.2073Z" fill="#6A6F73"/>
<path d="M63.3804 21.5825C63.3804 19.4826 64.8582 18.1613 66.7888 18.1613C67.476 18.1613 68.1191 18.3082 68.602 18.6602V20.3195H68.5282C68.1039 19.9966 67.6071 19.8054 67.0372 19.8054C66.0719 19.8054 65.3406 20.467 65.3406 21.5825C65.3406 22.6979 66.0719 23.3443 67.0372 23.3443C67.6071 23.3443 68.1039 23.1531 68.5282 22.8296H68.602V24.4889C68.1191 24.8415 67.476 24.9884 66.7888 24.9884C64.8582 24.9884 63.3804 23.6824 63.3804 21.5825Z" fill="#6A6F73"/>
<path d="M71.7531 21.8863V24.8516H69.8232V15.672H71.7531V20.8987L73.6987 18.3145H75.8921V18.3879L73.5524 21.3538L75.8921 24.775V24.8484H73.6836L71.7531 21.8831" fill="#6A6F73"/>
<path d="M80.2261 22.7975V22.2397C79.9342 22.0789 79.5534 22.0201 79.1587 22.0201C78.5302 22.0201 78.15 22.2543 78.15 22.7829C78.15 23.3267 78.5302 23.5616 79.0995 23.5616C79.6417 23.5616 80.0509 23.2824 80.2261 22.7975ZM80.2848 24.2073C79.8605 24.7214 79.2313 24.9708 78.5592 24.9708C77.2862 24.9708 76.2485 24.1934 76.2485 22.812C76.2485 21.5351 77.2862 20.6836 78.7792 20.6836C79.247 20.6836 79.7287 20.7571 80.2261 20.9033V20.7868C80.2261 20.0816 79.8315 19.7739 78.7931 19.7739C78.1355 19.7739 77.5056 19.9638 76.9647 20.2728H76.8916V18.7161C77.389 18.423 78.2666 18.1729 79.1291 18.1729C81.0899 18.1729 82.1573 19.1124 82.1573 20.7571V24.8531H80.2848V24.2073Z" fill="#6A6F73"/>
<path d="M85.4217 19.3534C85.7723 18.6336 86.2848 18.2227 87.0017 18.2227C87.2646 18.2227 87.5275 18.2816 87.629 18.3405V20.1903H87.5565C87.3371 20.1017 87.0742 20.0434 86.7085 20.0434C86.1089 20.0434 85.6411 20.3961 85.4797 21.0709V24.8301H83.5498V18.2968H85.4217V19.3534Z" fill="#6A6F73"/>
<path d="M92.7352 22.646V20.5461C92.4137 20.0763 91.99 19.8712 91.5064 19.8712C90.6591 19.8712 90.0885 20.4885 90.0885 21.6039C90.0885 22.7194 90.6591 23.3215 91.5064 23.3215C91.99 23.3215 92.4137 23.1157 92.7352 22.646ZM92.7932 24.1881C92.3841 24.7168 91.7403 25.0099 90.8634 25.0099C89.1958 25.0099 88.1284 23.4835 88.1284 21.6039C88.1284 19.7244 89.1958 18.1828 90.8634 18.1828C91.7113 18.1828 92.3254 18.4475 92.7352 18.9318V15.6873H94.6658V24.8605H92.7932V24.1856" fill="#6A6F73"/>
<path d="M1.69434 27.8615H7.33961V28.9769H2.96664V31.7808H6.9298V32.8677H2.96664V35.9216H7.33961V37.0372H1.69434V27.8639" fill="#6A6F73"/>
<path d="M11.9836 30.4449C13.4311 30.4449 14.2356 31.3996 14.2356 32.9696V37.0371H13.022V32.9994C13.022 32.1625 12.5977 31.5604 11.6765 31.5604C10.9161 31.5604 10.2724 32.0453 10.053 32.7348V37.0371H8.83936V30.5798H10.053V31.5193C10.4332 30.9172 11.077 30.4475 11.9836 30.4475" fill="#6A6F73"/>
<path d="M17.4815 30.5465H19.134V31.5892H17.4815V35.0685C17.4815 35.8023 17.8617 36.0523 18.5489 36.0523C18.7386 36.0523 18.9435 36.0232 19.0897 35.9643H19.134V37.0064C18.9587 37.0798 18.7095 37.1387 18.3735 37.1387C16.8667 37.1387 16.2677 36.448 16.2677 35.1863V31.5892H15.1562V30.5465H16.2677V28.8296H17.4815V30.5465Z" fill="#6A6F73"/>
<path d="M21.1636 33.1797H24.3664C24.3229 32.2256 23.8545 31.4919 22.8602 31.4919C21.9391 31.4919 21.3389 32.182 21.1636 33.1797ZM23.0796 37.1737C21.1926 37.1737 19.9058 35.9108 19.9058 33.8849C19.9058 31.8585 21.105 30.4493 22.8457 30.4493C24.6154 30.4493 25.5366 31.7268 25.5366 33.6203V34.1787H21.1195C21.2512 35.4853 22.0854 36.1165 23.2404 36.1165C23.9572 36.1165 24.4685 35.9551 25.0391 35.529H25.0833V36.6014C24.5568 37.0123 23.869 37.1737 23.0796 37.1737Z" fill="#6A6F73"/>
<path d="M28.2248 31.5581C28.5029 30.8681 29.1176 30.4572 29.8187 30.4572C30.0973 30.4572 30.3458 30.5009 30.4479 30.5598V31.7632H30.4044C30.2285 31.6759 29.9359 31.6316 29.6434 31.6316C28.9858 31.6316 28.4297 32.0715 28.2248 32.8059V37.0196H27.0112V30.5623H28.2248V31.5607" fill="#6A6F73"/>
<path d="M34.3281 36.0667C35.5273 36.0667 36.2296 35.1127 36.2296 33.8054C36.2296 32.5139 35.5273 31.5453 34.3281 31.5453C33.6699 31.5453 33.0558 31.9416 32.7343 32.5722V35.0544C33.0558 35.685 33.6699 36.0667 34.3281 36.0667ZM34.533 30.4438C36.4484 30.4438 37.4723 32.0151 37.4723 33.8054C37.4723 35.5976 36.4484 37.1683 34.533 37.1683C33.743 37.1683 33.0703 36.7574 32.7343 36.3161V39.5176H31.52V30.5786H32.7343V31.3123C33.0703 30.8572 33.743 30.4463 34.533 30.4463" fill="#6A6F73"/>
<path d="M40.1283 31.5581C40.4057 30.8681 41.0203 30.4572 41.722 30.4572C42 30.4572 42.2485 30.5009 42.3507 30.5598V31.7632H42.3072C42.1319 31.6759 41.8393 31.6316 41.5467 31.6316C40.8885 31.6316 40.3332 32.0715 40.1283 32.8059V37.0196H38.9146V30.5623H40.1283V31.5607" fill="#6A6F73"/>
<path d="M44.1129 27.9633C44.5372 27.9633 44.8878 28.3007 44.8878 28.7268C44.8878 29.1528 44.5372 29.4902 44.1129 29.4902C43.7037 29.4902 43.3374 29.1528 43.3374 28.7268C43.3374 28.3007 43.7037 27.9633 44.1129 27.9633Z" fill="#6A6F73"/>
<path d="M43.5078 37.0288H44.7223V30.5664H43.5078V37.0288Z" fill="#6A6F73"/>
<path d="M49.0561 33.2313C49.9773 33.5244 51.0005 33.9062 51.0005 35.1394C51.0005 36.4612 49.9186 37.1367 48.5297 37.1367C47.6811 37.1367 46.8331 36.931 46.3501 36.5492V35.3894H46.4088C46.9504 35.8883 47.7542 36.1086 48.5146 36.1086C49.2018 36.1086 49.8165 35.844 49.8165 35.2863C49.8165 34.714 49.3052 34.5816 48.2952 34.2442C47.3885 33.9505 46.3798 33.6124 46.3798 32.3944C46.3798 31.146 47.403 30.4122 48.705 30.4122C49.4653 30.4122 50.138 30.5737 50.679 30.9409V32.1158H50.6355C50.1097 31.6898 49.4943 31.4397 48.734 31.4397C47.9736 31.4397 47.5493 31.7778 47.5493 32.233C47.5493 32.747 48.0171 32.8932 49.0561 33.2313Z" fill="#6A6F73"/>
<path d="M53.293 33.1797H56.4952C56.4517 32.2256 55.9839 31.4919 54.989 31.4919C54.0678 31.4919 53.4683 32.182 53.293 33.1797ZM55.2084 37.1737C53.322 37.1737 52.0352 35.9108 52.0352 33.8849C52.0352 31.8585 53.2344 30.4493 54.9745 30.4493C56.7448 30.4493 57.6653 31.7268 57.6653 33.6203V34.1787H53.2489C53.3806 35.4853 54.2141 36.1165 55.3691 36.1165C56.0866 36.1165 56.5979 35.9551 57.1679 35.529H57.212V36.6014C56.6862 37.0123 55.9984 37.1737 55.2084 37.1737Z" fill="#6A6F73"/>
</g>
</g>
<defs>
<clipPath id="clip0_737_2100">
<rect width="94" height="40" fill="white" transform="translate(0.935059)"/>
</clipPath>
</defs>
</svg>
