<svg width="49" height="48" viewBox="0 0 49 48" fill="none" xmlns="http://www.w3.org/2000/svg">
<g clip-path="url(#clip0_737_2083)">
<mask id="mask0_737_2083" style="mask-type:luminance" maskUnits="userSpaceOnUse" x="0" y="0" width="49" height="48">
<path d="M48.9351 0H0.935059V48H48.9351V0Z" fill="white"/>
</mask>
<g mask="url(#mask0_737_2083)">
<path d="M24.9351 48C38.1899 48 48.9351 37.2548 48.9351 24C48.9351 10.7452 38.1899 0 24.9351 0C11.6803 0 0.935059 10.7452 0.935059 24C0.935059 37.2548 11.6803 48 24.9351 48Z" fill="#6A6F73"/>
<path d="M7.30839 23.9929C7.30839 12.9995 14.2484 3.6262 23.9884 0.0195312C11.1751 0.519531 0.935059 11.0595 0.935059 23.9995C0.935059 36.9529 11.1951 47.5062 24.0284 47.9795C14.2751 44.3795 7.30839 34.9995 7.30839 23.9929Z" fill="#6A6F73"/>
<mask id="mask1_737_2083" style="mask-type:luminance" maskUnits="userSpaceOnUse" x="0" y="0" width="25" height="48">
<path d="M7.30839 23.9929C7.30839 12.9995 14.2484 3.6262 23.9884 0.0195312C11.1751 0.519531 0.935059 11.0595 0.935059 23.9995C0.935059 36.9529 11.1951 47.5062 24.0284 47.9795C14.2751 44.3795 7.30839 34.9995 7.30839 23.9929Z" fill="url(#paint0_radial_737_2083)"/>
</mask>
<g mask="url(#mask1_737_2083)">
<path d="M7.30839 23.9929C7.30839 12.9995 14.2484 3.6262 23.9884 0.0195312C11.1751 0.519531 0.935059 11.0595 0.935059 23.9995C0.935059 36.9529 11.1951 47.5062 24.0284 47.9795C14.2751 44.3795 7.30839 34.9995 7.30839 23.9929Z" fill="#3E4143"/>
</g>
<path d="M24.5285 21.716C26.1219 17.7893 23.1419 16.7227 21.2019 16.7227H14.7752C15.3085 17.0893 15.2219 17.576 15.1152 17.876L11.3685 29.8427C11.2219 30.316 10.6618 30.816 10.3618 30.8893H15.5619C15.2752 30.836 14.8685 30.4293 15.0152 29.876L16.3752 25.5493C16.3819 25.5493 22.6352 26.396 24.5285 21.716ZM19.4752 17.8227C20.1552 17.8227 22.0419 17.916 20.8219 21.4827C19.5485 25.2293 16.7219 24.456 16.7219 24.456L18.8019 17.8227H19.4752Z" fill="white"/>
<path d="M28.6884 30.8951H32.1884C31.0684 30.5351 29.415 29.4751 28.755 28.7218C29.2884 28.1418 29.9484 27.4085 30.0684 25.9218H28.255C28.255 25.9218 28.6017 26.1218 28.6017 26.5485C28.6017 26.9418 28.4417 27.4885 28.135 27.8685C27.6017 27.0818 27.035 26.1818 26.835 24.8618C27.5484 24.5085 28.5484 24.1218 29.3417 23.4285C30.095 22.7685 30.2684 22.1418 30.2817 21.7351V21.6818C30.2817 21.2551 30.115 20.8551 29.8084 20.5551C29.2817 20.0351 28.455 19.8218 27.5817 19.9818C26.8817 20.1151 26.2884 20.4885 25.9884 20.7618C24.935 21.7551 24.8017 23.3885 24.8017 24.1285C24.8017 24.3085 24.8084 24.4418 24.815 24.5218C24.755 24.5485 24.6484 24.5885 24.6484 24.5885C23.875 24.8751 21.815 25.4218 21.0817 27.1151C20.9884 27.3285 20.855 27.7951 20.855 28.3351C20.855 28.8018 20.955 29.3218 21.255 29.7951C21.775 30.6085 22.655 31.1218 24.0684 31.0951C25.6017 31.0685 27.115 30.0218 27.3817 29.8285C27.6417 30.0751 28.3284 30.7218 28.6884 30.8951ZM28.6884 21.4285C28.5084 22.5685 27.0284 23.7218 26.6684 23.8751C26.6017 23.2351 26.635 22.2218 27.1684 21.3951C27.5217 20.8485 27.995 20.6085 28.375 20.7418C28.6817 20.8485 28.715 21.1285 28.6884 21.4285ZM26.635 29.0551C26.4284 29.1818 25.615 29.5951 24.855 29.6685C24.1484 29.7351 22.975 29.4618 22.9817 28.0485C22.9817 26.8418 24.295 25.9551 25.0084 25.6485C25.295 26.8151 25.9417 28.1351 26.635 29.0551Z" fill="white"/>
<path d="M39.3217 17.8347C41.4017 17.3347 43.1151 18.9614 43.2684 19.0747L43.8617 17.1881C43.0417 16.9414 37.0751 14.9214 32.8551 19.7347C30.2617 22.6947 29.6284 28.7614 32.9151 30.3881C36.4351 32.1281 40.3217 30.1214 40.6084 29.9814L42.2151 24.8614C42.3884 24.2414 42.7817 23.8414 43.4751 23.5814H37.8884C38.7017 23.9214 38.6417 24.5347 38.5817 24.7881L36.9751 29.9081C36.7617 29.9481 32.2684 31.0681 34.7817 23.2081C35.3351 21.5214 36.8484 18.4281 39.3217 17.8347Z" fill="white"/>
</g>
</g>
<defs>
<radialGradient id="paint0_radial_737_2083" cx="0" cy="0" r="1" gradientUnits="userSpaceOnUse" gradientTransform="translate(21.0677 23.2681) rotate(-88.2324) scale(25.8488 26.3042)">
<stop offset="0.1" stop-color="white"/>
<stop offset="0.35" stop-color="#FDFDFD"/>
<stop offset="0.45" stop-color="#F6F6F6"/>
<stop offset="0.51" stop-color="#EAEAEA"/>
<stop offset="0.57" stop-color="#D9D9D9"/>
<stop offset="0.62" stop-color="#C3C3C3"/>
<stop offset="0.66" stop-color="#A7A7A7"/>
<stop offset="0.7" stop-color="#868686"/>
<stop offset="0.73" stop-color="#606060"/>
<stop offset="0.77" stop-color="#353535"/>
<stop offset="0.8"/>
</radialGradient>
<clipPath id="clip0_737_2083">
<rect width="48" height="48" fill="white" transform="translate(0.935059)"/>
</clipPath>
</defs>
</svg>
