<svg width="102" height="34" viewBox="0 0 102 34" fill="none" xmlns="http://www.w3.org/2000/svg">
<g clip-path="url(#clip0_737_2043)">
<mask id="mask0_737_2043" style="mask-type:luminance" maskUnits="userSpaceOnUse" x="1" y="0" width="101" height="34">
<path d="M101.601 0.5H1.10107V33.5H101.601V0.5Z" fill="white"/>
</mask>
<g mask="url(#mask0_737_2043)">
<path d="M101.538 8.35689C102.907 16.1158 81.5489 26.277 53.8275 31.0518C26.1094 35.8266 2.52944 33.4037 1.16259 25.6415C-0.203171 17.8814 21.1609 7.72359 48.879 2.94985C76.5981 -1.82716 100.174 0.595743 101.538 8.35689Z" fill="#6A6F73"/>
<path d="M75.4504 19.8746L75.3079 11.8066H77.8805V21.9754H74.1818L71.6148 13.6301H71.5596L71.702 21.9754H69.146V11.8066H73.0048L75.393 19.8746H75.4504Z" fill="white"/>
<path d="M28.6886 12.7588L27.2655 22.0824H24.46L26.3866 11.8066H31.0083L32.9261 22.0824H30.1317L28.7472 12.7588H28.6886Z" fill="white"/>
<path d="M39.4601 22.0824L37.7223 12.8439H37.6659L37.6008 22.0824H34.9985L35.2281 11.8066H39.4678L40.7508 19.6617H40.806L42.09 11.8066H46.3275L46.5527 22.0824H43.9559L43.8875 12.8439H43.8334L42.0966 22.0824H39.4601Z" fill="white"/>
<path d="M20.0847 19.1837C20.1862 19.4327 20.1553 19.7526 20.1078 19.9459C20.0206 20.2876 19.7866 20.636 19.0954 20.636C18.444 20.636 18.0487 20.2669 18.0487 19.7024V18.7077H15.262L15.2598 19.5037C15.2598 21.7944 17.0838 22.4856 19.038 22.4856C20.9171 22.4856 22.4651 21.8501 22.7113 20.1381C22.8371 19.2503 22.7433 18.6695 22.7002 18.45C22.2619 16.299 18.3181 15.6569 18.0244 14.4537C17.9748 14.2473 17.9891 14.0289 18.0134 13.9121C18.0852 13.5845 18.3126 13.2231 18.9629 13.2231C19.5702 13.2231 19.929 13.5944 19.929 14.1556C19.929 14.3445 19.929 14.79 19.929 14.79H22.5203V14.0682C22.5203 11.8299 20.4888 11.4805 19.017 11.4805C17.1688 11.4805 15.6584 12.0843 15.3824 13.7571C15.3073 14.2189 15.2962 14.6306 15.4055 15.1459C15.8593 17.2456 19.5503 17.8538 20.0847 19.1837Z" fill="white"/>
<path d="M53.8718 19.165C53.9745 19.4118 53.9414 19.723 53.895 19.9163C53.81 20.2569 53.5781 20.5998 52.8914 20.5998C52.2488 20.5998 51.8568 20.2307 51.8568 19.6793L51.8546 18.6933H49.0966L49.0933 19.4784C49.0933 21.7463 50.9007 22.4309 52.835 22.4309C54.6943 22.4309 56.2279 21.8041 56.4697 20.1073C56.5956 19.2262 56.5061 18.6529 56.4609 18.4378C56.0247 16.3065 52.1207 15.671 51.8303 14.4797C51.7806 14.2745 51.795 14.0583 51.8204 13.948C51.8944 13.6182 52.1174 13.2656 52.7611 13.2656C53.3628 13.2656 53.7139 13.6281 53.7139 14.1849C53.7139 14.3717 53.7139 14.8128 53.7139 14.8128H56.2853V14.0987C56.2853 11.8843 54.2704 11.5371 52.813 11.5371C50.9857 11.5371 49.4875 12.1333 49.217 13.794C49.1419 14.2494 49.1342 14.6534 49.2412 15.1665C49.6884 17.2444 53.3429 17.8482 53.8718 19.165Z" fill="white"/>
<path d="M62.5995 20.5455C63.3205 20.5455 63.5457 20.052 63.5954 19.7997C63.6164 19.6884 63.6219 19.5399 63.6197 19.4066V11.8027H66.2474V19.1741C66.2529 19.363 66.2342 19.7517 66.2253 19.8489C66.0409 21.7673 64.5074 22.3897 62.5984 22.3897C60.6872 22.3897 59.1526 21.7673 58.9704 19.8489C58.9615 19.7517 58.9428 19.363 58.9483 19.1741V11.8027H61.5738V19.4066C61.5738 19.5399 61.5782 19.6894 61.5981 19.7997C61.6544 20.052 61.873 20.5455 62.5995 20.5455Z" fill="white"/>
<path d="M84.2749 20.4374C85.0279 20.4374 85.2907 19.9668 85.3393 19.6927C85.3581 19.5748 85.3636 19.4318 85.3625 19.3018V17.8103H84.2959V16.31H87.9803V19.0682C87.978 19.2603 87.9736 19.4023 87.9427 19.7451C87.7694 21.6144 86.1298 22.2816 84.2882 22.2816C82.4433 22.2816 80.8059 21.6144 80.6304 19.7451C80.6005 19.4023 80.5961 19.2603 80.5928 19.0682L80.595 14.741C80.595 14.5587 80.6182 14.2355 80.6381 14.064C80.8688 12.1434 82.4433 11.5254 84.2882 11.5254C86.1309 11.5254 87.744 12.1401 87.935 14.064C87.9692 14.3916 87.9582 14.741 87.9582 14.741V15.0839H85.3382V14.5084C85.3404 14.5095 85.3349 14.2638 85.3039 14.1175C85.2598 13.8904 85.0599 13.3685 84.2683 13.3685C83.5109 13.3685 83.289 13.862 83.2338 14.1175C83.2018 14.2529 83.1896 14.4364 83.1896 14.6023V19.3018C83.1874 19.4318 83.1951 19.5748 83.2161 19.6927C83.2614 19.9679 83.5231 20.4374 84.2749 20.4374Z" fill="white"/>
</g>
</g>
<defs>
<clipPath id="clip0_737_2043">
<rect width="101" height="34" fill="white" transform="translate(0.935059)"/>
</clipPath>
</defs>
</svg>
