<svg width="49" height="48" viewBox="0 0 49 48" fill="none" xmlns="http://www.w3.org/2000/svg">
<g clip-path="url(#clip0_737_2032)">
<mask id="mask0_737_2032" style="mask-type:luminance" maskUnits="userSpaceOnUse" x="0" y="0" width="49" height="48">
<path d="M48.9351 0H0.935059V48H48.9351V0Z" fill="white"/>
</mask>
<g mask="url(#mask0_737_2032)">
<path fill-rule="evenodd" clip-rule="evenodd" d="M24.9259 0.712891C12.06 0.712891 1.63037 11.143 1.63037 24.0084C1.63037 36.874 12.0602 47.3039 24.9259 47.3039C37.791 47.3039 48.2214 36.874 48.2214 24.0084C48.2214 11.1432 37.791 0.712891 24.9259 0.712891ZM24.9259 45.2152C13.2135 45.2152 3.71903 35.7207 3.71903 24.0084C3.71903 12.2965 13.2135 2.8018 24.9259 2.8018C36.6378 2.8018 46.1327 12.2965 46.1327 24.0084C46.1327 35.7207 36.6378 45.2152 24.9259 45.2152Z" fill="#6A6F73"/>
<path fill-rule="evenodd" clip-rule="evenodd" d="M20.2832 8.1656C21.7916 7.72526 23.355 7.50245 24.9263 7.50391C26.5363 7.50391 28.0927 7.73452 29.564 8.16435L24.9263 18.4445L20.2832 8.1656Z" fill="#6A6F73"/>
<path fill-rule="evenodd" clip-rule="evenodd" d="M33.7859 10.0801C35.524 11.1889 37.0405 12.6116 38.2579 14.2756L30.6459 31.1203L27.7085 24.5889H22.1431L19.2059 31.12L11.6049 14.2599C12.8199 12.6026 14.3322 11.1853 16.0649 10.0803L22.1431 23.5646H27.7274L33.7859 10.0801ZM8.97753 19.7369C8.60595 21.1305 8.41833 22.5666 8.41944 24.0089C8.41944 30.4775 12.1398 36.0766 17.5576 38.7839L8.97753 19.7369Z" fill="#6A6F73"/>
<path fill-rule="evenodd" clip-rule="evenodd" d="M20.3599 39.8758C21.8446 40.3017 23.3817 40.517 24.9262 40.5156C26.5086 40.5156 28.0387 40.2927 29.487 39.8775L24.9262 29.7485L20.3599 39.8758ZM32.2937 38.7843C37.7117 36.077 41.432 30.478 41.432 24.0093C41.432 22.5449 41.2412 21.1252 40.8839 19.7734L32.2937 38.7843Z" fill="#6A6F73"/>
</g>
</g>
<defs>
<clipPath id="clip0_737_2032">
<rect width="48" height="48" fill="white" transform="translate(0.935059)"/>
</clipPath>
</defs>
</svg>
