<svg width="18" height="17" viewBox="0 0 18 17" fill="none" xmlns="http://www.w3.org/2000/svg">
<path id="Vector" d="M17.5199 12.0679C17.5199 9.80849 15.9245 8.06686 13.4378 8.16098C13.6723 5.00721 16.1122 2.27705 17.7545 1.00613L17.2853 0.300049C13.86 2.46534 9.54328 6.93715 9.54328 11.5501C9.54328 14.1862 11.0448 16.1161 13.4847 16.1161C15.9246 16.1161 17.5199 14.2332 17.5199 12.0679ZM7.97659 12.0679C7.97659 9.80849 6.38127 8.06686 3.89445 8.16098C4.12905 5.00721 6.56894 2.27705 8.21117 1.00613L7.74198 0.300049C4.31672 2.46534 0 6.93715 0 11.5501C0 14.1862 1.50147 16.1161 3.94136 16.1161C6.38127 16.1161 7.97659 14.2332 7.97659 12.0679Z" fill="#1C1D1F"/>
</svg>
